<?xml version="1.0" encoding="UTF-8"?>
<svg id="horizontal" xmlns="http://www.w3.org/2000/svg" viewBox="0 0 2584.6 907.04">
  <defs>
    <style>
      .cls-1 {
        fill: #1e3a8a;
      }
    </style>
  </defs>
  <path class="cls-1" d="M219.13,273.9c0-22.65,16.51-36.8,39.63-36.8s38.69,14.15,38.69,36.8-16.04,36.33-38.69,36.33-39.63-14.63-39.63-36.33ZM225.26,567.35v-227.4h66.05v227.4h-66.05Z"/>
  <path class="cls-1" d="M566.13,431.94v135.4h-66.05v-130.69c0-29.72-14.15-45.29-42.46-45.29-30.67,0-49.07,22.65-49.07,55.67v120.31h-66.05v-149.09c0-21.23-8.02-26.89-29.25-24.53v-53.78c46.24-8.02,75.96,0,85.87,32.08,20.76-25.48,47.65-36.8,79.26-36.8,52.84,0,87.75,38.69,87.75,96.72Z"/>
  <path class="cls-1" d="M588.41,496.11h65.58c3.3,17.93,17.46,25.48,37.27,25.48,22.17,0,36.8-6.13,36.8-19.81s-12.74-18.87-39.16-22.65c-42.93-5.19-95.77-18.4-95.77-72.66,0-46.71,41.99-71.24,97.66-71.24s92,25.01,98.13,73.6h-61.33c-3.3-15.1-15.1-23.12-35.38-23.12-24.06,0-33.5,8.49-33.5,18.87,0,14.15,13.21,18.4,38.21,22.17,50.01,7.55,97.66,21.23,97.66,73.13,0,45.29-40.1,72.18-102.38,72.18s-99.55-25.01-103.79-75.96Z"/>
  <path class="cls-1" d="M1152.12,355.99v209c0,66.52-44.82,105.21-115.59,105.21-37.27,0-76.9-9.91-107.57-26.89l19.34-50.48c27.36,14.15,57.09,21.23,83.03,21.23,37.27,0,54.73-14.63,54.73-47.65v-13.68c-16.51,5.66-36.33,8.96-55.2,8.96-66.05,0-110.87-41.99-110.87-112.76s52.84-113.7,130.21-113.7c35.86,0,70.77,7.55,101.91,20.76ZM1086.07,499.88v-103.32c-12.27-3.77-23.59-5.66-36.8-5.66-37.74,0-64.16,19.34-64.16,58.03s25.48,57.56,61.33,57.56c13.21,0,25.48-2.36,39.63-6.6Z"/>
  <path class="cls-1" d="M1412.79,431.47v135.88h-66.05v-131.16c0-29.25-16.51-44.82-42.93-44.82-30.67,0-49.07,22.65-49.07,55.2v120.78h-66.05V237.09h66.05v126.44c19.34-18.4,42.46-28.31,70.3-28.31,53.31,0,87.75,38.69,87.75,96.25Z"/>
  <path class="cls-1" d="M1622.55,560.27c-23.59,8.02-44.35,10.85-63.22,10.85-53.78,0-85.87-29.72-85.87-97.19v-81.15l-42.46-4.24v-48.6h43.4l6.6-69.35h58.5v69.35h73.6v53.31h-73.6v79.26c0,29.25,9.44,42.93,36.33,42.93,10.85,0,22.65-1.89,34.91-6.13l11.8,50.95Z"/>
  <path class="cls-1" d="M1885.9,431.94v135.4h-66.05v-130.69c0-29.72-14.15-45.29-42.46-45.29-30.67,0-49.07,22.65-49.07,55.67v120.31h-66.05v-149.09c0-21.23-8.02-26.89-29.25-24.53v-53.78c46.24-8.02,75.96,0,85.87,32.08,20.76-25.48,47.65-36.8,79.26-36.8,52.84,0,87.75,38.69,87.75,96.72Z"/>
  <path class="cls-1" d="M2131.06,473.46h-154.75c7.55,29.25,32.55,44.35,72.65,44.35,23.59,0,46.71-4.25,66.99-13.21l11.79,48.12c-29.72,13.68-56.14,19.34-86.81,19.34-79.73,0-131.16-44.82-131.16-118.89,0-69.82,45.76-117.95,118.89-117.95,65.11,0,107.1,39.16,107.1,98.13,0,12.74-1.41,25.48-4.72,40.1ZM1976.31,429.59h101.43c0-28.78-20.29-42.46-47.65-42.46s-46.71,15.57-53.78,42.46Z"/>
  <path class="cls-1" d="M2357.88,349.85l-22.17,55.67c-13.21-7.08-24.06-9.91-37.27-9.91-27.36,0-50.95,17.46-51.42,54.73v117h-66.05v-149.09c0-21.23-8.49-25.95-29.25-24.06v-54.26c46.71-8.02,76.43,0,85.87,32.55,15.57-25.01,40.57-36.8,66.52-36.8,17.93,0,34.91,3.77,53.78,14.15Z"/>
  <g>
    <path class="cls-1" d="M878.36,435.41l-36.85,28.1c.41,1.36.64,2.8.64,4.3s-.22,2.94-.64,4.3l36.85,28.1c2.28-1.44,4.98-2.28,7.88-2.28,2.72,0,5.27.74,7.46,2.02v-64.27c-2.19,1.28-4.73,2.02-7.46,2.02-2.9,0-5.6-.84-7.88-2.28Z"/>
    <path class="cls-1" d="M835.26,455.32l36.85-28.1c-.41-1.36-.64-2.8-.64-4.3s.22-2.94.64-4.3l-36.85-28.1c-2.28,1.44-4.98,2.28-7.88,2.28-2.73,0-5.29-.75-7.48-2.04v64.3c2.19-1.29,4.75-2.04,7.48-2.04,2.9,0,5.6.84,7.88,2.28Z"/>
    <path class="cls-1" d="M871.55,514.16c-.2-2.03.02-3.97.56-5.78l-36.85-28.1c-2.28,1.44-4.98,2.28-7.88,2.28-2.73,0-5.29-.75-7.48-2.04v79.79c0,4.64,3.76,8.4,8.4,8.4h56.99c4.64,0,8.4-3.76,8.4-8.4v-34.9c-2.47,1.45-5.41,2.21-8.53,1.98-7.09-.5-12.92-6.16-13.61-13.24Z"/>
    <path class="cls-1" d="M819.9,365.33c2.48-1.46,5.41-2.22,8.54-2,7.1.5,12.93,6.16,13.63,13.24.2,2.03-.02,3.97-.56,5.78l36.85,28.1c2.28-1.44,4.98-2.28,7.88-2.28,2.72,0,5.27.74,7.46,2.02v-78.61c0-4.64-3.76-8.4-8.4-8.4h-56.99c-4.64,0-8.4,3.76-8.4,8.4v33.75Z"/>
  </g>
  <g>
    <path class="cls-1" d="M843.43,273c0,7.38,5.99,13.37,13.37,13.37s13.37-5.99,13.37-13.37-5.99-13.37-13.37-13.37-13.37,5.99-13.37,13.37ZM864.8,273c0,4.42-3.58,8.01-8.01,8.01s-8.01-3.58-8.01-8.01,3.58-8.01,8.01-8.01,8.01,3.58,8.01,8.01Z"/>
    <path class="cls-1" d="M893.5,269.14c0-.08-.02-.17-.03-.25-.03-.3-.07-.61-.11-.91-.01-.1-.03-.2-.04-.3-.04-.27-.08-.54-.13-.8-.02-.13-.05-.27-.07-.4-.01-.07-.03-.14-.04-.21-.01-.07-.03-.14-.04-.21-.03-.14-.06-.28-.08-.42-.06-.28-.12-.56-.18-.84-.08-.34-.16-.67-.24-1-.03-.11-.06-.22-.09-.33-.03-.11-.06-.22-.09-.33-.03-.11-.06-.22-.09-.33-.04-.14-.08-.27-.12-.41-.12-.41-.25-.81-.39-1.21-.1-.29-.2-.57-.3-.85-.02-.06-.05-.13-.07-.19-.02-.06-.04-.11-.06-.17,0,0,0-.02,0-.02,0,0,0,0,0-.01,0-.02-.01-.04-.02-.06-.05-.14-.1-.27-.16-.41-.03-.07-.05-.14-.08-.2s-.05-.14-.08-.2c-.03-.07-.06-.14-.09-.21-.03-.07-.06-.14-.09-.21-.02-.06-.05-.11-.07-.17-.02-.06-.05-.11-.07-.17-.02-.05-.04-.09-.06-.13-.04-.1-.09-.2-.13-.29-.04-.1-.09-.19-.13-.29-.04-.1-.09-.19-.14-.29-.05-.1-.09-.19-.14-.29-.07-.13-.13-.27-.2-.4-.06-.13-.13-.26-.19-.38,0-.01-.01-.02-.02-.04-.03-.06-.06-.13-.1-.19-.03-.06-.07-.12-.1-.19-.07-.13-.13-.25-.2-.38,0-.01-.01-.02-.02-.03-.06-.1-.11-.21-.17-.31,0,0,0-.01,0-.02-.02-.05-.05-.09-.08-.14,0,0,0,0,0,0-.06-.1-.11-.2-.17-.3-.04-.06-.07-.13-.11-.19-.04-.06-.08-.13-.11-.19-.04-.06-.08-.13-.11-.19-.04-.06-.08-.13-.11-.19-.08-.13-.15-.25-.23-.38,0-.01-.02-.03-.02-.04-.08-.12-.16-.25-.23-.37-.08-.13-.16-.25-.25-.38,0,0-.01-.02-.02-.02-.01-.02-.03-.05-.04-.07-.03-.04-.05-.08-.08-.12-.03-.04-.05-.08-.08-.12-.09-.13-.18-.27-.27-.4,0,0,0,0,0-.01-.07-.11-.15-.21-.22-.32-.04-.06-.09-.12-.13-.18-.04-.06-.09-.12-.13-.18-.09-.12-.17-.24-.26-.36-.09-.12-.18-.24-.27-.35-.05-.06-.09-.12-.14-.18-.05-.06-.09-.12-.14-.18-.07-.1-.15-.19-.23-.28-.07-.08-.13-.17-.2-.25-.08-.1-.16-.19-.24-.29-.01-.01-.02-.03-.03-.04,0,0,0,0-.01-.01,0,0-.01-.01-.02-.02-.03-.03-.06-.07-.08-.1-.01-.02-.03-.03-.04-.05-.01-.02-.03-.03-.04-.05-.08-.09-.15-.18-.23-.27-.05-.06-.1-.12-.15-.17-.04-.04-.08-.09-.11-.13l-4.36,4.36c.16.19.32.38.48.57.07.08.14.17.2.25.08.1.15.19.23.29.06.08.12.15.18.23,0,0,0,0,0,0,.04.04.07.09.1.13,0,0,0,0,0,0l.16.22c.07.1.15.2.22.3.07.1.15.2.22.3.05.08.11.15.16.23.04.06.08.11.12.17.04.06.08.11.12.17.04.06.08.11.12.17.04.06.08.12.11.17.05.08.1.15.15.23.05.08.1.15.15.23.1.15.19.31.29.46.14.23.28.47.42.7.05.08.09.16.13.24.06.1.12.21.17.31.06.11.11.21.17.32.04.07.08.14.11.21.11.21.22.43.32.64.05.11.11.22.16.32.05.11.1.22.15.33.14.29.27.58.39.88.1.23.19.46.29.7.03.09.07.18.1.26.1.26.2.53.29.8.03.09.06.18.09.27.09.27.18.54.27.81.11.36.22.73.32,1.1.05.18.1.37.14.55.02.09.05.19.07.28.56,2.32.86,4.75.86,7.25,0,.53-.01,1.05-.04,1.57,0,.14-.01.27-.02.4,0,.12-.02.24-.03.36h0c-1.18,15.26-13.75,27.57-29.08,28.37-.26.01-.52.02-.79.03-.1,0-.2,0-.3,0-.25,0-.51,0-.77,0-.36,0-.72-.01-1.07-.03-.08,0-.16,0-.24-.01-.13,0-.26-.01-.39-.02-.13,0-.26-.02-.39-.03-.52-.04-1.04-.09-1.55-.16,0,0,0,0,0,0-.1-.01-.19-.02-.29-.04-.1-.01-.19-.03-.29-.04-.1-.01-.19-.03-.29-.04-.19-.03-.38-.06-.57-.09-.09-.02-.19-.03-.28-.05-.09-.02-.19-.03-.28-.05-.09-.02-.19-.04-.28-.06-.1-.02-.2-.04-.29-.06-.04,0-.08-.02-.11-.02-.02,0-.04,0-.06-.01-.09-.02-.18-.04-.27-.06,0,0-.01,0-.02,0-.12-.03-.23-.05-.35-.08-.01,0-.02,0-.03,0-.09-.02-.18-.04-.26-.07-.02,0-.04-.01-.06-.02-.13-.03-.26-.07-.39-.1-.12-.03-.24-.07-.36-.1,0,0,0,0-.01,0-.01,0-.02,0-.03-.01-.11-.03-.22-.06-.32-.09,0,0-.02,0-.03,0-.06-.02-.11-.03-.17-.05-.06-.02-.11-.03-.17-.05-.12-.04-.24-.08-.36-.11-.05-.02-.1-.03-.15-.05-.05-.02-.1-.03-.15-.05-.13-.04-.26-.09-.39-.14-.13-.05-.26-.09-.39-.14-.11-.04-.22-.08-.33-.12-.11-.04-.22-.08-.33-.13-.02,0-.03-.01-.05-.02-.1-.04-.21-.08-.31-.12s-.2-.09-.31-.13c-.12-.05-.24-.1-.36-.15-.03-.01-.05-.02-.08-.03-.09-.04-.19-.08-.28-.13-.05-.02-.09-.04-.14-.06-.05-.02-.09-.04-.14-.06-.03-.01-.06-.03-.09-.04-.1-.05-.2-.09-.3-.14-.1-.05-.21-.1-.31-.15-.1-.05-.19-.1-.29-.14,0,0-.01,0-.02,0-.06-.03-.12-.06-.18-.09-.08-.04-.16-.08-.24-.12-.11-.06-.22-.11-.32-.17-.11-.06-.22-.12-.33-.18-.11-.06-.22-.12-.32-.18,0,0-.02-.01-.03-.01-.1-.06-.2-.11-.3-.17-.11-.06-.21-.13-.32-.19-.11-.06-.21-.13-.32-.19h0c-.05-.03-.1-.06-.15-.1-.05-.03-.1-.06-.15-.1-.11-.07-.21-.14-.32-.21-.1-.06-.19-.13-.28-.19-.12-.08-.24-.16-.36-.24-.08-.06-.16-.11-.24-.17,0,0,0,0-.01,0,0,0,0,0-.01-.01-.12-.08-.23-.17-.35-.25-.02-.01-.04-.03-.05-.04-.03-.02-.07-.05-.1-.07s-.07-.05-.1-.07c-.06-.05-.12-.09-.18-.14-.01,0-.02-.02-.03-.03-.03-.02-.06-.05-.09-.07-.1-.08-.2-.15-.3-.23-.09-.07-.18-.14-.27-.22-.05-.04-.1-.08-.14-.12-.02-.02-.04-.04-.07-.05s-.04-.04-.07-.05c-.08-.07-.16-.13-.24-.2-.1-.09-.2-.17-.3-.26-.05-.04-.1-.09-.15-.13-.05-.04-.1-.09-.15-.13-.1-.09-.2-.18-.3-.27-.03-.03-.06-.06-.09-.09-.03-.03-.06-.06-.1-.09-.09-.08-.17-.16-.26-.24-.09-.08-.17-.16-.25-.24-.05-.05-.1-.09-.15-.14-.13-.13-.27-.27-.4-.4-.05-.05-.1-.1-.14-.15-.08-.08-.16-.17-.24-.25-.08-.08-.16-.17-.24-.26-.03-.03-.06-.06-.09-.1-.03-.03-.06-.06-.09-.09-.07-.08-.14-.16-.21-.23,0,0-.01-.02-.02-.02-.05-.06-.1-.12-.16-.18-.06-.07-.12-.13-.18-.2-.06-.07-.12-.14-.18-.22-.08-.09-.16-.19-.24-.28,0,0,0,0,0-.01l-.11-.14s-.08-.09-.11-.14c-.08-.1-.15-.19-.23-.29-.07-.09-.14-.18-.21-.26,0,0,0-.01-.01-.02-.08-.1-.15-.2-.23-.3,0,0-.01-.02-.02-.03,0,0-.01-.02-.02-.02-.06-.08-.13-.17-.19-.25-.07-.1-.15-.2-.22-.3-.07-.1-.14-.2-.21-.3-.07-.1-.14-.2-.21-.31,0,0,0-.01-.02-.02-.06-.1-.13-.19-.19-.29-.07-.1-.14-.21-.2-.31-.03-.05-.06-.1-.09-.15-.03-.05-.07-.11-.1-.16-.06-.1-.13-.21-.19-.31,0,0,0-.02-.01-.02,0-.01-.02-.03-.02-.04-.05-.09-.11-.18-.16-.26-.06-.11-.13-.21-.19-.32-.06-.11-.12-.22-.18-.32-.11-.2-.22-.4-.33-.6-.02-.03-.04-.07-.06-.1,0-.01-.01-.02-.02-.03-.03-.06-.07-.13-.1-.19,0,0,0,0,0-.01,0,0,0,0,0-.01-.06-.13-.13-.25-.19-.38-.02-.05-.05-.1-.07-.15,0,0,0-.01,0-.02-.05-.11-.11-.22-.16-.33-.14-.3-.28-.6-.41-.91-.04-.1-.08-.19-.12-.29-.05-.12-.1-.23-.14-.35-.04-.09-.07-.18-.11-.26-.02-.06-.04-.11-.07-.17-.07-.18-.14-.37-.21-.55-.03-.08-.06-.17-.09-.25-.03-.09-.06-.17-.09-.26-.05-.14-.1-.28-.14-.42-.03-.07-.05-.15-.07-.22-.03-.09-.06-.18-.09-.28-.03-.1-.06-.19-.09-.29-.01-.03-.02-.07-.03-.1-.03-.1-.06-.21-.09-.31-.02-.06-.03-.12-.05-.17-.02-.07-.04-.13-.06-.2,0-.02-.01-.03-.01-.05,0-.02-.01-.05-.02-.07-.02-.09-.05-.18-.07-.27-.02-.08-.04-.15-.06-.23,0-.02-.01-.05-.02-.07-.02-.07-.03-.14-.05-.21-.05-.19-.09-.38-.13-.57-.03-.12-.05-.24-.08-.35,0-.02,0-.04-.01-.06-.02-.08-.03-.16-.05-.24-.02-.11-.04-.22-.06-.33,0-.05-.02-.09-.03-.14,0-.05-.02-.09-.03-.14,0,0,0,0,0,0-.02-.12-.04-.24-.06-.35-.01-.07-.02-.14-.03-.21,0,0,0,0,0,0,0-.05-.01-.09-.02-.14,0-.05-.02-.1-.02-.15,0,0,0,0,0-.01,0,0,0-.02,0-.02,0-.07-.02-.13-.03-.2,0-.05-.01-.09-.02-.14,0-.05-.01-.09-.02-.14,0,0,0-.01,0-.02,0-.04-.01-.08-.02-.12,0,0,0-.02,0-.02,0-.06-.02-.13-.02-.2,0-.03,0-.05,0-.08,0-.02,0-.05,0-.07-.01-.1-.02-.2-.03-.31,0,0,0-.02,0-.02,0-.03,0-.06,0-.08,0,0,0,0,0-.01,0-.08-.02-.15-.02-.23,0-.07-.01-.14-.02-.21,0-.01,0-.03,0-.04,0,0,0,0,0-.01,0-.05,0-.1-.01-.15,0,0,0-.01,0-.02,0-.04,0-.08-.01-.13,0-.02,0-.04,0-.06,0-.04,0-.07,0-.11,0-.02,0-.04,0-.05,0-.02,0-.04,0-.06,0-.01,0-.02,0-.03,0-.02,0-.03,0-.05,0-.06,0-.13-.01-.19h0c0-.05,0-.11,0-.16,0,0,0-.01,0-.02,0-.02,0-.04,0-.07,0-.11-.01-.22-.01-.32-.02-.39-.02-.78-.02-1.18,0-.53.01-1.06.04-1.58,0-.13.01-.26.02-.39,0-.13.02-.26.03-.39,0-.12.02-.25.03-.37,0,0,0,0,0-.01,0,0,0-.01,0-.02,0,0,0,0,0-.01,0-.01,0-.02,0-.03.02-.27.05-.55.09-.82.01-.1.02-.19.03-.29h0s0-.01,0-.02c0,0,0-.02,0-.03.01-.08.02-.16.03-.25.02-.14.04-.29.06-.43.01-.07.02-.14.03-.21.01-.07.02-.14.03-.21.01-.1.03-.19.05-.28.02-.09.03-.19.05-.28.03-.19.07-.38.11-.56.02-.09.04-.18.06-.26.06-.26.11-.52.18-.79.03-.12.06-.23.09-.35.02-.08.04-.15.06-.23.02-.08.04-.15.06-.23.07-.27.15-.54.23-.8h0s0-.02,0-.03c0-.02.01-.03.02-.05.02-.07.04-.14.06-.2.04-.12.07-.24.11-.36.04-.12.08-.24.12-.35,0,0,0,0,0,0,0-.02.01-.04.02-.06.03-.1.07-.2.1-.29.04-.12.08-.24.13-.35.04-.12.09-.24.13-.35.04-.1.07-.19.11-.29,0,0,0,0,0,0,0-.02.01-.03.02-.05,0,0,0,0,0-.01,0,0,0-.02.01-.03,0,0,0,0,0,0h0c.03-.08.06-.15.09-.22.1-.25.21-.51.32-.76h0s0-.02.01-.03c0,0,0,0,0-.01.05-.11.09-.21.14-.32.02-.06.05-.11.08-.17.03-.06.05-.11.08-.17.02-.05.05-.1.07-.16.02-.05.05-.1.07-.16,0,0,0,0,0,0,.01-.02.02-.04.03-.06.1-.21.2-.42.31-.62.04-.08.09-.17.13-.25.04-.08.09-.17.13-.25.04-.08.09-.16.13-.24.04-.08.09-.16.14-.24.06-.11.12-.22.18-.32.12-.21.25-.43.38-.64.06-.11.13-.21.19-.32.06-.1.13-.21.2-.31.07-.1.13-.21.2-.31.07-.1.14-.21.2-.31.06-.09.12-.18.19-.27.02-.02.03-.04.05-.07.06-.09.13-.18.19-.27h0c.07-.1.14-.2.22-.3.03-.04.05-.07.08-.11.03-.04.06-.07.08-.11,0-.01.02-.02.02-.03,0,0,.01-.02.02-.02,0,0,0-.01.01-.02.07-.1.14-.19.22-.29,0,0,.01-.02.02-.03,0,0,0,0,0,0,.07-.09.14-.18.21-.27.08-.1.15-.19.23-.29.08-.1.15-.19.23-.29,0,0,.02-.02.02-.03.09-.11.18-.22.27-.32,0,0,0,0,0,0,.05-.06.1-.12.15-.17.02-.03.05-.06.07-.09s.05-.06.08-.09c.04-.05.09-.1.13-.14.04-.05.09-.1.13-.14.05-.05.09-.1.14-.16.07-.08.15-.16.22-.24.02-.02.04-.05.06-.07.01-.01.03-.03.04-.04,0,0,.01-.01.02-.02.04-.04.08-.09.12-.13.06-.07.13-.13.19-.2.08-.08.16-.17.25-.25.08-.08.17-.17.25-.25.06-.06.12-.12.18-.17.04-.04.09-.08.13-.13,0,0,.01,0,.02-.01,0,0,.01-.01.02-.02.01-.01.03-.03.04-.04.06-.06.13-.12.19-.18.13-.12.25-.23.38-.35.06-.06.12-.11.18-.17h0s.04-.03.06-.05c0,0,0,0,.01-.01.06-.05.12-.1.17-.15.05-.04.1-.09.15-.13.08-.07.16-.13.24-.2.06-.05.13-.11.19-.16.02-.01.03-.03.05-.04,0,0,0,0,0,0,0,0,0,0,.01-.01,0,0,.02-.01.03-.02.09-.07.17-.14.26-.21.04-.03.08-.06.12-.1,0,0,0,0,.01-.01,0,0,0,0,0,0,.05-.04.1-.08.15-.12.1-.08.19-.15.29-.23.01,0,.02-.02.03-.03.18-.14.37-.28.56-.42,0,0,0,0,0,0,.2-.14.4-.29.6-.42.11-.08.23-.16.34-.23,0,0,0,0,0,0,0,0,0,0,0,0,.19-.13.38-.26.58-.38.21-.13.42-.27.63-.39.11-.06.21-.13.32-.19.11-.06.21-.13.32-.19.11-.06.22-.12.32-.18.11-.06.22-.12.32-.18.11-.06.22-.12.33-.18.1-.06.21-.11.32-.16,0,0,.01,0,.02-.01.11-.06.22-.11.33-.17.05-.02.09-.05.14-.07.05-.02.09-.05.14-.07.01,0,.02-.01.03-.02.01,0,.02-.01.04-.02.11-.05.22-.1.33-.15.23-.11.45-.21.68-.31.06-.03.13-.06.19-.08.11-.05.23-.1.34-.14.07-.03.14-.06.21-.09,0,0,.01,0,.02,0,.03-.01.06-.02.09-.03.01,0,.02,0,.04-.01.05-.02.1-.04.15-.06.23-.09.47-.18.7-.27.24-.09.47-.17.71-.25.24-.08.48-.16.72-.23.12-.04.24-.07.36-.11.12-.04.24-.07.36-.11.12-.03.24-.07.37-.1.12-.03.24-.07.37-.1.12-.03.25-.06.37-.09.11-.03.21-.05.32-.08.03,0,.05-.01.08-.02,0,0,0,0,0,0,0,0,.01,0,.02,0,.11-.02.22-.05.32-.07.12-.03.24-.05.36-.08,0,0,.01,0,.02,0,.09-.02.19-.04.28-.06.09-.02.19-.04.28-.05.09-.02.19-.03.28-.05.19-.03.38-.07.57-.09.08-.01.17-.03.25-.04.02,0,.05,0,.07-.01,0,0,.02,0,.02,0h.03c.06-.01.13-.02.19-.03.1-.01.19-.03.29-.04.14-.02.29-.04.43-.05.14-.02.29-.03.44-.05.1-.01.19-.02.29-.03.09,0,.18-.02.27-.02.04,0,.08,0,.11,0,.13-.01.26-.02.39-.03.09,0,.18-.01.26-.02.08,0,.15,0,.23-.01h0c.08,0,.16,0,.24-.01h0c.07,0,.14,0,.22,0,.05,0,.1,0,.15,0,.02,0,.03,0,.05,0,0,0,.01,0,.02,0,.04,0,.07,0,.11,0,.07,0,.13,0,.2,0,.06,0,.13,0,.19,0h.06c.08,0,.17,0,.25,0,1.19,0,2.36.07,3.51.2v-6.18c-1.08-.1-2.18-.16-3.29-.16,0,0,0,0,0,0h-.07s-.09,0-.14,0h0c-.15,0-.3,0-.45,0h-.03c-.13,0-.25,0-.37,0-.02,0-.05,0-.07,0-.04,0-.07,0-.11,0-.02,0-.05,0-.07,0-.09,0-.17,0-.26,0-.01,0-.02,0-.03,0-.02,0-.03,0-.05,0-.08,0-.16,0-.24.01-.13,0-.26.01-.38.02-.01,0-.02,0-.04,0-.05,0-.1,0-.15,0-.07,0-.15,0-.22.01-.15.01-.3.02-.45.03s-.3.02-.45.04c-.12.01-.24.02-.37.03-.02,0-.05,0-.07,0-.02,0-.04,0-.06,0,0,0-.02,0-.02,0-.12.01-.24.03-.37.04-.3.03-.59.07-.88.11-.29.04-.59.09-.88.13-.14.02-.29.05-.43.07-.29.05-.58.11-.87.16-.11.02-.21.04-.32.07-.06.01-.12.03-.18.04-.07.02-.14.03-.21.05,0,0-.02,0-.03,0-.04,0-.07.02-.11.02-.02,0-.04,0-.06.01-.02,0-.03,0-.05.01,0,0-.01,0-.02,0-.08.02-.16.04-.24.06-.01,0-.02,0-.03,0h0s-.02,0-.04,0c-.02,0-.04.01-.07.02-.09.02-.18.04-.26.06-.06.01-.12.03-.18.05-.08.02-.15.04-.23.06-.05.01-.1.03-.15.04-.11.03-.22.06-.34.09-.02,0-.03,0-.05.01-.09.02-.18.05-.27.07-.1.03-.21.06-.31.09-.04.01-.09.03-.13.04,0,0-.01,0-.02,0-.07.02-.14.04-.21.06-.08.02-.17.05-.25.08-.05.02-.1.03-.15.05-.08.03-.16.05-.24.08-.05.02-.1.03-.15.05-.1.03-.21.07-.31.1,0,0-.01,0-.02,0-.12.04-.24.08-.36.13-.05.02-.1.04-.15.06-.1.03-.19.07-.28.1-.14.05-.27.1-.4.15-.12.05-.25.09-.37.14-.02,0-.04.02-.06.02-.13.05-.25.1-.38.15-.13.05-.27.11-.4.17-.22.09-.45.19-.67.29-.07.03-.15.07-.22.1-.22.1-.45.21-.67.31-.13.06-.25.12-.38.18,0,0,0,0,0,0-.13.06-.25.13-.38.19-.1.05-.19.1-.29.15-.06.03-.12.06-.18.09-.03.02-.07.04-.1.05-.08.04-.17.09-.25.13-.08.04-.16.09-.24.13-.04.02-.08.04-.11.06-.09.05-.18.1-.26.15-.04.02-.08.05-.13.07-.08.04-.15.09-.23.13-.1.06-.2.12-.31.18-.08.05-.17.1-.25.15-.01,0-.02.01-.03.02-.08.05-.17.1-.25.15,0,0,0,0-.01,0,0,0,0,0-.01,0-.09.05-.17.1-.26.16,0,0,0,0-.01,0-.01,0-.02.01-.03.02-.01,0-.02.01-.03.02,0,0-.02.01-.02.02-.01,0-.03.02-.04.03-.08.05-.17.1-.25.16-.01,0-.03.02-.04.03-.02.01-.04.03-.06.04-.07.05-.14.09-.21.14-.02.01-.03.02-.05.03-.02.01-.04.03-.06.04-.09.06-.18.12-.27.18-.05.03-.09.06-.14.09-.08.05-.15.1-.23.16-.23.16-.45.32-.67.48-.03.03-.07.05-.1.08-.07.05-.14.11-.21.16-.01,0-.03.02-.04.03-.46.34-.91.7-1.35,1.06-.08.07-.17.14-.25.21-.04.03-.07.06-.11.09-.1.08-.19.16-.29.24-.01.01-.03.02-.04.04-.08.07-.16.14-.23.2-.01,0-.02.02-.03.03-.06.05-.11.1-.17.15,0,0-.02.02-.03.02-.08.07-.16.14-.24.21-.09.08-.18.17-.27.25,0,0-.01.01-.02.02-.04.04-.08.08-.13.12-.06.06-.12.12-.19.18-.1.09-.19.18-.28.27,0,0-.02.02-.03.02,0,0,0,0,0,0-.05.04-.09.09-.13.13,0,0-.01.01-.02.02-.02.02-.04.04-.07.07l-.07.07s-.03.03-.04.04c-.03.03-.05.05-.08.08-.01.01-.03.03-.04.04-.05.05-.09.09-.14.14-.06.06-.11.11-.17.17-.06.07-.13.13-.19.2-.02.02-.05.05-.07.07-.06.06-.11.12-.17.18-.06.06-.12.13-.18.19,0,0,0,0,0,.01,0,0,0,0-.01.01-.07.08-.14.15-.21.23-.1.11-.2.22-.29.33-.05.06-.1.11-.15.17-.05.06-.1.11-.15.17l-.11.13s-.07.09-.11.13c-.1.12-.2.23-.29.35,0,0,0,.01-.02.02,0,0-.02.02-.02.03,0,0,0,0,0,0-.03.04-.06.08-.1.12-.04.05-.09.1-.13.16-.02.02-.03.04-.05.06-.07.09-.14.17-.21.26-.12.15-.24.31-.36.46-.09.12-.18.23-.27.35-.03.04-.05.07-.08.11-.05.07-.11.14-.16.21-.06.08-.12.16-.18.25l-.13.18c-.06.09-.13.18-.19.27-.05.07-.1.14-.15.22-.01.02-.02.03-.03.05-.02.03-.05.07-.07.11-.05.07-.09.14-.14.21-.03.05-.07.1-.1.15s-.06.1-.1.15c-.06.09-.12.19-.18.28-.07.1-.13.21-.2.31-.04.07-.08.13-.13.2-.04.06-.08.13-.12.19-.03.04-.05.09-.08.13,0,.01-.01.02-.02.03-.04.06-.08.13-.12.19,0,.01-.02.03-.03.04-.06.1-.12.21-.18.31-.05.08-.09.16-.14.24-.02.04-.05.09-.07.13-.04.08-.09.16-.13.24-.02.03-.03.05-.05.08-.02.03-.03.05-.05.08,0,0,0,0,0,.01-.04.07-.08.14-.12.22-.06.11-.12.22-.18.33-.03.06-.06.12-.09.18,0,0,0,0,0,0-.05.1-.1.19-.15.29,0,0,0,0,0,0-.06.11-.12.23-.17.35-.03.06-.06.11-.08.17-.04.07-.07.14-.1.22-.03.06-.06.12-.08.18-.01.02-.02.05-.03.07-.08.17-.16.34-.24.52-.03.06-.06.13-.08.19-.04.08-.07.17-.11.25-.23.52-.45,1.05-.65,1.59-.05.13-.1.27-.15.4-.03.09-.06.17-.09.26-.03.07-.05.15-.08.22,0,.02-.01.04-.02.06,0,.01,0,.03-.01.04-.03.07-.05.15-.08.23,0,.02-.02.05-.03.07-.03.09-.06.17-.09.26-.01.04-.02.07-.04.11-.02.05-.03.1-.05.16l-.02.05s-.03.09-.05.14c-.02.05-.03.09-.04.14-.02.05-.03.11-.05.17-.02.07-.05.15-.07.23,0,0,0,.02,0,.02-.02.05-.03.11-.05.16-.01.04-.02.08-.04.12-.01.04-.02.08-.04.12,0,0,0,.02,0,.02-.02.08-.05.16-.07.24,0,.03-.02.06-.03.09-.03.11-.06.22-.09.34-.01.05-.03.1-.04.15-.02.08-.04.15-.06.23,0,0,0,0,0,0-.01.06-.03.11-.04.17,0,.02,0,.03-.01.05,0,.01,0,.02,0,.03-.02.06-.03.12-.05.18,0,.02,0,.03-.01.05-.01.04-.02.08-.03.12-.02.08-.04.16-.06.25-.02.09-.04.17-.06.26-.02.08-.04.16-.05.24,0,.02-.01.04-.01.07-.03.13-.05.26-.08.39-.03.13-.05.26-.08.39,0,.01,0,.02,0,.03,0,0,0,.02,0,.03,0,.02,0,.03,0,.05,0,0,0,.02,0,.03-.02.11-.04.23-.06.34-.03.14-.05.29-.07.44-.02.15-.05.29-.07.44-.02.15-.04.29-.06.44-.04.29-.08.59-.11.88-.03.3-.06.59-.09.89,0,.1-.02.2-.03.3,0,.01,0,.03,0,.04,0,.02,0,.04,0,.06,0,.02,0,.04,0,.05,0,.11-.02.23-.02.35,0,.04,0,.09,0,.13,0,.09-.01.18-.02.27,0,.06,0,.12-.01.19,0,.11-.01.21-.02.32,0,.05,0,.1,0,.14,0,.1,0,.21-.01.31,0,.04,0,.09,0,.13,0,0,0,.01,0,.02,0,.07,0,.15,0,.22,0,.02,0,.03,0,.05,0,.04,0,.07,0,.11,0,.04,0,.07,0,.11,0,.01,0,.02,0,.03,0,.06,0,.11,0,.17v.02s0,.09,0,.14c0,.07,0,.14,0,.21v31.26c0,3.11,2.52,5.64,5.64,5.64h31.26c.07,0,.14,0,.21,0,.09,0,.18,0,.27,0,.14,0,.28,0,.43,0,.03,0,.05,0,.08,0,0,0,.01,0,.02,0,.14,0,.28,0,.42-.01.09,0,.17,0,.26-.01.01,0,.03,0,.04,0,.02,0,.04,0,.05,0,0,0,0,0,.01,0,.02,0,.04,0,.06,0,.03,0,.05,0,.08,0,0,0,0,0,.01,0,.14,0,.28-.02.42-.02,0,0,0,0,.01,0,.11,0,.22-.01.33-.02.01,0,.03,0,.04,0,.05,0,.09,0,.14-.01,0,0,.01,0,.02,0,.07,0,.14-.01.2-.02l.2-.02c.16-.01.31-.03.47-.04.16-.02.31-.03.46-.05.11-.01.21-.02.32-.04.02,0,.03,0,.05,0,0,0,.01,0,.02,0,.01,0,.02,0,.03,0,0,0,.02,0,.03,0,0,0,.01,0,.02,0,.01,0,.03,0,.04,0,.07,0,.14-.02.2-.03.07,0,.14-.02.21-.03.31-.04.61-.09.92-.14.14-.02.28-.05.41-.07.03,0,.05,0,.08-.01.01,0,.03,0,.04,0,.01,0,.03,0,.04,0,.11-.02.23-.04.34-.06.15-.03.3-.06.45-.09.09-.02.19-.04.28-.06.47-.1.93-.21,1.39-.32.18-.05.37-.1.55-.14.15-.04.29-.08.44-.12.27-.08.55-.16.82-.24.27-.08.54-.17.81-.26.18-.06.36-.12.53-.18.28-.1.57-.2.85-.31.11-.04.21-.08.32-.12.31-.12.63-.25.94-.38.14-.06.28-.12.41-.18.12-.05.24-.11.36-.16.84-.38,1.65-.78,2.45-1.22.24-.13.49-.27.73-.41.08-.05.16-.09.24-.14.32-.19.64-.38.95-.58.25-.16.5-.32.75-.48.11-.07.22-.14.33-.22.09-.06.18-.12.28-.19.24-.16.48-.33.72-.5.14-.1.28-.21.43-.31,1.84-1.37,3.54-2.9,5.09-4.58.24-.26.47-.52.7-.78.22-.25.44-.5.65-.76.34-.4.66-.82.98-1.24.08-.11.17-.22.25-.33.56-.75,1.09-1.53,1.59-2.33.17-.27.33-.53.49-.8.07-.12.14-.24.21-.36.07-.12.14-.24.21-.36.07-.12.14-.24.2-.37.07-.12.13-.25.2-.37.07-.12.13-.25.2-.37s.13-.25.19-.37c.14-.27.27-.55.4-.83.07-.14.13-.28.19-.42s.13-.28.19-.42c.04-.09.08-.19.12-.28.12-.28.24-.57.36-.85.14-.34.27-.68.39-1.02.04-.1.07-.2.11-.3.11-.3.21-.6.31-.91.14-.41.26-.82.38-1.23,0,0,0,0,0,0,.03-.12.07-.23.1-.35.63-2.25,1.05-4.59,1.25-6.99,0-.11.02-.22.02-.33,0,0,0,0,0-.01.01-.17.02-.33.03-.5,0-.17.02-.33.02-.5,0-.11,0-.22.01-.34,0-.25.02-.5.02-.76,0-.08,0-.17,0-.25,0-.1,0-.2,0-.3,0-1.31-.07-2.6-.2-3.87Z"/>
    <path class="cls-1" d="M857.01,248c-.07,0-.14,0-.21,0-.84,0-1.66.04-2.48.12-12.65,1.25-22.52,11.91-22.52,24.88,0,9.74,5.57,18.18,13.69,22.3.2.1.4.2.6.29.07.03.13.06.2.09.07.03.14.06.2.09.35.16.7.31,1.05.45,0,0,.01,0,.02,0,.12.05.23.09.35.14,0,0,0,0,0,0,.16.06.32.12.48.18.25.09.5.17.75.25.07.02.13.04.2.06.15.05.29.09.44.13.09.03.19.05.28.08.19.05.38.1.57.15.09.02.17.04.26.06.09.02.17.04.26.06.1.02.2.05.3.07.1.02.2.04.3.06.1.02.2.04.3.06,0,0,0,0,0,0,.19.03.37.07.56.1,0,0,0,0,0,0,.03,0,.07.01.1.02.06.01.12.02.18.03.06,0,.11.02.17.03.07.01.14.02.22.03.07.01.14.02.21.03.07,0,.14.02.21.03.07,0,.15.02.22.03.09.01.19.02.28.03.06,0,.12.01.17.02.06,0,.13.01.19.02.09,0,.19.02.28.02.11,0,.21.02.32.02s.21.01.32.02c.11,0,.21.01.32.01.2,0,.41.01.61.02.12,0,.24,0,.36,0s.24,0,.36,0c.2,0,.41,0,.61-.02.11,0,.21,0,.32-.01.11,0,.21-.01.32-.02s.21-.01.32-.02c.09,0,.19-.01.28-.02.06,0,.13-.01.19-.02.06,0,.12-.01.17-.02.09,0,.19-.02.28-.03.07,0,.15-.02.22-.03.07,0,.14-.02.21-.03.07,0,.14-.02.21-.03.07-.01.14-.02.22-.03.06,0,.11-.02.17-.03.06,0,.12-.02.18-.03.03,0,.07-.01.1-.02,0,0,0,0,0,0,.19-.03.38-.07.56-.1,0,0,0,0,0,0,.1-.02.2-.04.3-.06.1-.02.2-.04.3-.06.1-.02.2-.05.3-.07.08-.02.15-.03.23-.05.07-.02.15-.04.23-.06.07-.02.15-.04.22-.06.15-.04.3-.08.45-.12.22-.06.44-.13.66-.2,0,0,0,0,0,0,.16-.05.32-.1.47-.15.16-.05.31-.11.47-.16.3-.11.6-.22.9-.34.07-.03.14-.06.22-.09.07-.03.14-.06.21-.09.15-.06.3-.13.45-.2.27-.12.54-.25.81-.38,8.31-4.06,14.03-12.6,14.03-22.47,0-6.09-2.18-11.68-5.8-16.02l-1.06,1.06c-.88.88-2.3.88-3.18,0-.88-.88-.88-2.3,0-3.18l1.02-1.03,4.11-4.11,4.36-4.36c-.07-.06-.14-.12-.21-.18-.05-.05-.11-.1-.16-.14-.02-.01-.03-.03-.05-.04-.07-.06-.14-.12-.2-.17-.07-.06-.14-.12-.21-.18-.2-.17-.4-.33-.61-.5-.01,0-.02-.02-.04-.03-.07-.06-.14-.11-.21-.17-.04-.03-.07-.06-.11-.08-.05-.04-.1-.08-.15-.12-.06-.05-.12-.09-.18-.14-.07-.06-.15-.11-.22-.17-.05-.03-.09-.07-.14-.1-.08-.06-.16-.12-.24-.18-.1-.07-.2-.14-.3-.21-.07-.05-.15-.11-.22-.16-.16-.12-.33-.23-.5-.34-.06-.04-.13-.09-.19-.13-.14-.09-.28-.19-.42-.28-.17-.11-.34-.22-.51-.33-.06-.04-.13-.08-.19-.12-.09-.06-.18-.11-.27-.17-.09-.06-.18-.11-.27-.16-.07-.04-.14-.08-.21-.13-.11-.06-.21-.13-.32-.19-.09-.05-.18-.1-.27-.15,0,0-.01,0-.02,0,0,0,0,0,0,0-.06-.03-.12-.07-.18-.1-.06-.03-.12-.07-.18-.1,0,0,0,0,0,0-.07-.04-.15-.08-.22-.12-.09-.05-.18-.1-.27-.14-.11-.06-.21-.11-.32-.17-.06-.03-.11-.06-.17-.08-.09-.04-.17-.09-.26-.13-.08-.04-.17-.08-.25-.12-.08-.04-.17-.08-.25-.12-.14-.07-.28-.13-.42-.2-.08-.04-.15-.07-.23-.1-.12-.06-.25-.11-.37-.17-.17-.08-.34-.15-.51-.22-.08-.03-.15-.06-.23-.1-.04-.02-.07-.03-.11-.05-.06-.02-.12-.05-.18-.07-.09-.04-.17-.07-.26-.1-.08-.03-.16-.06-.24-.09-.19-.07-.38-.15-.57-.22-.06-.02-.13-.05-.19-.07-.03-.01-.07-.02-.1-.04-.13-.05-.26-.09-.39-.14-.06-.02-.12-.04-.18-.06-.06-.02-.11-.04-.17-.06-.15-.05-.3-.1-.45-.15-.06-.02-.12-.04-.18-.06-.06-.02-.12-.04-.18-.06-.08-.03-.16-.05-.24-.08-.02,0-.03,0-.05-.01-.08-.03-.17-.05-.25-.07-.15-.05-.31-.09-.46-.13-.05-.02-.1-.03-.15-.04-.07-.02-.13-.04-.2-.06-.09-.02-.18-.05-.27-.07-.09-.02-.18-.05-.28-.07-.09-.02-.18-.05-.28-.07-.07-.02-.14-.03-.2-.05-.08-.02-.16-.04-.23-.06-.11-.03-.23-.05-.34-.08v18.72c.26.12.52.25.78.38,6.11,3.18,10.28,9.56,10.28,16.92,0,6.03-2.8,11.41-7.17,14.9-.08.07-.17.13-.25.2-.08.07-.17.13-.25.19-.17.13-.34.25-.51.37-.09.06-.17.12-.26.18-.09.06-.18.12-.27.18-.09.06-.18.11-.27.17-.09.06-.18.11-.27.17-.09.05-.18.11-.27.16-.01,0-.02.01-.03.02-.08.05-.16.09-.25.14-.09.05-.19.1-.28.15-.08.05-.17.09-.26.13-.04.02-.09.04-.13.07-.08.04-.15.08-.23.12-.08.04-.16.08-.24.11-.04.02-.08.04-.12.05-.1.05-.21.1-.31.14-.09.04-.19.08-.28.12-.1.04-.2.08-.3.12-.02,0-.04.02-.06.02-.1.04-.19.08-.29.11,0,0,0,0,0,0-.11.04-.22.08-.33.12,0,0,0,0,0,0-.11.04-.22.08-.33.11,0,0,0,0,0,0-.13.04-.26.09-.39.13-.01,0-.03,0-.04.01-.01,0-.02,0-.03,0-.07.02-.13.04-.2.06-.1.03-.2.06-.3.09-.1.03-.2.06-.3.08-.1.03-.21.05-.31.08-.15.04-.31.07-.46.11-.08.02-.16.03-.25.05-.08.02-.17.03-.25.05-.08.02-.17.03-.25.05-.08.01-.17.03-.25.04-.09.02-.19.03-.28.04-.07.01-.14.02-.21.03,0,0-.01,0-.02,0-.07.01-.15.02-.22.03-.06,0-.13.02-.19.02-.07,0-.13.01-.2.02-.08,0-.16.02-.24.02-.07,0-.15.01-.23.02-.07,0-.14.01-.2.01-.08,0-.15.01-.23.01-.35.02-.7.03-1.05.03-1.32,0-2.6-.13-3.84-.39-.15-.03-.31-.07-.46-.1h0c-.07-.02-.13-.03-.2-.05-.07-.02-.13-.03-.2-.05-.03,0-.07-.02-.1-.03-.02,0-.03,0-.05-.01-.12-.03-.24-.06-.36-.1h0c-.14-.04-.29-.08-.43-.13-.01,0-.02,0-.03,0-.03,0-.06-.02-.09-.03-.12-.04-.23-.07-.35-.11,0,0,0,0,0,0-.11-.04-.22-.08-.33-.11-.11-.04-.22-.08-.33-.12,0,0,0,0,0,0-.1-.04-.19-.07-.28-.11-.03-.01-.05-.02-.08-.03-.09-.04-.19-.08-.28-.12-.1-.04-.2-.09-.3-.13-.13-.06-.25-.11-.38-.17-.09-.04-.18-.09-.27-.13-.08-.04-.16-.08-.23-.12-.04-.02-.09-.04-.13-.07-.09-.04-.17-.09-.26-.13-.09-.05-.19-.1-.28-.15-.08-.05-.17-.09-.25-.14-.01,0-.02-.01-.03-.02-.09-.05-.18-.11-.27-.16-.09-.05-.18-.11-.27-.17-.08-.05-.17-.1-.25-.16-.01,0-.03-.02-.04-.03-.08-.05-.17-.11-.25-.16-.09-.06-.18-.12-.26-.18-.09-.06-.17-.12-.26-.18-.09-.06-.17-.12-.26-.19-.09-.06-.17-.13-.25-.19-4.51-3.48-7.42-8.95-7.42-15.09,0-9.69,7.23-17.69,16.58-18.9.2-.03.4-.05.6-.07.21-.02.41-.04.62-.05.1,0,.21-.01.31-.02.31-.02.63-.02.95-.02,1.2,0,2.38.11,3.53.32v-6.02c-1.08-.15-2.19-.24-3.31-.24h0Z"/>
  </g>
</svg>